# xmcd
#
# Track frame offsets: 
#        150
#        9459
#        25611
#        38102
#        48265
#        63577
#        76080
#        92916
#        102349
#        113462
#        125766
#        137593
#        150704
#        162463
#        173972
#
# Disc length: 2462 seconds
#
# Revision: 0
# Processed by: cddbd v1.5.2PL0 Copyright (c) Steve Scherf et al.
# Submitted via: ExactAudioCopy v1.1
#
DISCID=b8099c0f
DTITLE=The Staple Singers - Swing Low
DYEAR=1962
DGENRE=Gospel
TTITLE0=Born In Bethlehem
TTITLE1=Stand by Me
TTITLE2=I've Been Scorned
TTITLE3=Two Wings
TTITLE4=Calling Me
TTITLE5=Sit Down Servant
TTITLE6=The Day Is Passed And Gone
TTITLE7=This May Be The Last Time
TTITLE8=I Know I Got Religion
TTITLE9=Let Me Ride
TTITLE10=I'm Coming Home
TTITLE11=I Had A Dream
TTITLE12=Low Is The Way
TTITLE13=Since He Lightened My Heavy Load
TTITLE14=On My Way To Heaven
EXTD=
EXTT0=
EXTT1=
EXTT2=
EXTT3=
EXTT4=
EXTT5=
EXTT6=
EXTT7=
EXTT8=
EXTT9=
EXTT10=
EXTT11=
EXTT12=
EXTT13=
EXTT14=
PLAYORDER=
